<svg width="1553" height="792" viewBox="0 0 1553 792" fill="none" xmlns="http://www.w3.org/2000/svg">
<path d="M341.39 97.2578C300.044 121.952 272.091 156.731 257.338 201.181H71.1814V97.2578H341.39Z" fill="#E52421"/>
<path d="M560.547 201.181V97.2578H408.554C333.237 114.544 277.332 163.933 268.403 257.361V536.205H358.472L361.384 259.419C365.46 226.493 391.472 201.181 421.366 199.741L560.547 201.181Z" fill="#E52421"/>
<path d="M586.558 97.2578H646.54C733.503 103.637 791.544 170.519 790.573 254.274V373.014C809.597 450.391 901.607 468.5 925.678 373.014V250.982C927.619 156.525 991.677 104.666 1068.74 98.2868L1132.8 97.2578V201.181H1076.7C1046.22 206.326 1029.14 227.11 1022.74 260.654V384.744C1001.77 630.662 684.198 549.169 696.621 370.957L697.592 264.975C697.786 234.313 666.922 206.12 634.699 201.387H586.752V97.2578H586.558Z" fill="#127DB8"/>
<path d="M1248.69 98.2867V-47H1153.57L1157.65 374.043C1166.57 628.604 1481.82 565.015 1480.85 387.831L1481.82 242.545C1477.74 158.789 1416.79 103.637 1340.7 97.2578L1248.69 98.2867Z" fill="#127DB8"/>
<path d="M1250.82 200.152H1327.89C1362.44 204.885 1382.04 227.522 1390 258.39V376.307C1366.9 465.414 1271.98 450.597 1248.88 376.307L1250.82 200.152Z" fill="white"/>
</svg>
